<?xml version="1.0" standalone="no"?><!DOCTYPE svg PUBLIC "-//W3C//DTD SVG 1.1//EN" "http://www.w3.org/Graphics/SVG/1.1/DTD/svg11.dtd"><svg t="1610839972822" class="icon" viewBox="0 0 1024 1024" version="1.1" xmlns="http://www.w3.org/2000/svg" p-id="1083" xmlns:xlink="http://www.w3.org/1999/xlink" width="200" height="200"><defs><style type="text/css"></style></defs><path d="M1011.16586667 623.22915555l-100.67057778-100.67057777a35.13457778 35.13457778 0 0 0-50.24426667 0L785.06666667 597.74293333 564.4288 818.19875555a39.13955555 39.13955555 0 0 0-9.10222222 15.1096889L516.00497778 967.11111111l-2.54862223 8.92017778a36.40888889 36.40888889 0 0 0 6.37155556 31.49368889A36.40888889 36.40888889 0 0 0 548.40888889 1021.72444445a38.22933333 38.22933333 0 0 0 10.19448889-1.45635556l142.5408-42.05226667a30.76551111 30.76551111 0 0 0 15.10968889-9.10222222l2.00248888-2.00248889L748.65777778 937.80195555 771.95946667 912.49777778l13.1072-13.1072 54.61333333-54.61333333 145.63555555-145.63555556 25.12213334-25.30417778a35.13457778 35.13457778 0 0 0 0-50.60835556zM690.22151111 944.17351111L612.12444445 967.11111111 548.40888889 985.31555555l5.64337778-18.20444444 36.40888888-123.79022222L621.22666667 812.00924445 721.7152 912.49777778zM839.68 795.07911111l-92.66062222 92.66062222-100.85262223-100.85262222 188.96213334-188.96213333 4.55111111 5.09724444 96.11946667 96.30151111z m121.2416-121.42364444l-100.67057778-100.85262222L885.37315555 548.40888889 985.31555555 648.35128889z" p-id="1084"></path><path d="M281.28 173.76l57.92 115.68 57.92-115.68h54.56l-73.6 133.6h49.12v25.44h-64v32h64v25.6h-64V448h-48v-57.6h-64v-25.28h64v-32h-63.52v-25.76h48.8l-73.76-133.6h54.56z" p-id="1085"></path><path d="M168 576h384a21.28 21.28 0 0 1 24 24 21.28 21.28 0 0 1-24 24h-384a24 24 0 0 1 0-48zM168 720h176a24 24 0 0 1 0 48h-176a24 24 0 0 1 0-48zM827.68 228.64a16 16 0 0 0-22.72 0l-113.12 113.12-56.48-56.48a16 16 0 1 0-22.72 22.56l68 68a14.4 14.4 0 0 0 6.4 3.68 18.08 18.08 0 0 0 10.88 0 19.04 19.04 0 0 0 6.08-3.52l124.48-124.48a16 16 0 0 0 0-22.88z" p-id="1086"></path><path d="M960 128v328a24 24 0 0 1-48 0V128a16 16 0 0 0-16-16H128a16 16 0 0 0-16 16v768a16 16 0 0 0 16 16h328a24 24 0 0 1 0 48H128a64 64 0 0 1-64-64V128a64 64 0 0 1 64-64h768a64 64 0 0 1 64 64z" p-id="1087"></path></svg>