<?xml version="1.0" standalone="no"?><!DOCTYPE svg PUBLIC "-//W3C//DTD SVG 1.1//EN" "http://www.w3.org/Graphics/SVG/1.1/DTD/svg11.dtd"><svg t="1610840005388" class="icon" viewBox="0 0 1024 1024" version="1.1" xmlns="http://www.w3.org/2000/svg" p-id="1483" xmlns:xlink="http://www.w3.org/1999/xlink" width="200" height="200"><defs><style type="text/css"></style></defs><path d="M475.50577778 511.90897778v-48.5376H366.29617778v-72.8064h94.13063111l-95.60291556-95.60291556 51.48216889-51.48216889 95.60291556 95.60291556 95.60291555-95.60291556 51.48216889 51.48216889-95.60291555 95.60291556H657.52177778v72.8064h-109.2096v48.5376H657.52177778v72.8064h-109.2096v97.0752h-72.8064v-97.0752H366.29617778v-72.8064h109.2096z m-291.2256-485.376h655.2576c60.31473778 0 109.2096 48.89486222 109.2096 109.2096v792.94691555c0 24.32568889 0 96.38570667-102.85511111 66.31537778l-148.82474667-67.43608889-158.64490667 62.03278223a72.8064 72.8064 0 0 1-53.02727111 0l-158.64490667-62.03164445-148.82360888 67.43608889c-102.85624889 30.63808-102.85624889-41.98968889-102.85624889-66.31651556V135.74257778c0-60.31473778 48.89486222-109.2096 109.2096-109.2096z m0 72.8064c-20.10453333 0-36.4032 16.29866667-36.4032 36.4032v792.94691555l148.82360889-67.43608888a72.8064 72.8064 0 0 1 56.56234666-1.4904889l158.64604445 62.03164445 158.64604444-62.03164445a72.8064 72.8064 0 0 1 56.56234667 1.4904889l148.82360889 67.43608888V135.74257778c0-20.10453333-16.29866667-36.4032-36.4032-36.4032h-655.2576z" p-id="1484"></path></svg>