<?xml version="1.0" standalone="no"?><!DOCTYPE svg PUBLIC "-//W3C//DTD SVG 1.1//EN" "http://www.w3.org/Graphics/SVG/1.1/DTD/svg11.dtd"><svg t="1617313568763" class="icon" viewBox="0 0 1024 1024" version="1.1" xmlns="http://www.w3.org/2000/svg" p-id="21222" xmlns:xlink="http://www.w3.org/1999/xlink" width="200" height="200"><defs><style type="text/css"></style></defs><path d="M854.956468 121.425514 759.685637 121.425514c0-31.580253-25.590841-57.173141-57.159838-57.173141-31.558763 0-57.152674 25.591865-57.152674 57.173141l-76.214822 0c0-31.580253-25.594935-57.173141-57.154721-57.173141-31.571043 0-57.162908 25.591865-57.162908 57.173141l-76.207659 0c0-31.580253-25.591865-57.173141-57.162908-57.173141-31.568996 0-57.161884 25.591865-57.161884 57.173141l-95.260597 0c-42.085514 0-76.214822 34.108842-76.214822 76.196403l0 685.907818c0 42.086537 34.129308 76.215846 76.214822 76.215846l685.907818 0c42.088584 0 76.208683-34.130332 76.208683-76.215846L931.164127 197.621916C931.16515 155.534356 897.045051 121.425514 854.956468 121.425514zM683.481048 121.425514c0-10.526751 8.527211-19.064194 19.043728-19.064194 10.525728 0 19.053961 8.537444 19.053961 19.064194l0 38.107923c0 10.507308-8.528234 19.042705-19.053961 19.042705-10.516518 0-19.043728-8.53642-19.043728-19.042705L683.481048 121.425514zM492.94041 121.425514c0-10.526751 8.53642-19.064194 19.064194-19.064194 10.514471 0 19.043728 8.537444 19.043728 19.064194l0 38.107923c0 10.507308-8.529257 19.042705-19.043728 19.042705-10.527774 0-19.064194-8.53642-19.064194-19.042705L492.94041 121.425514zM302.418192 121.425514c0-10.526751 8.528234-19.064194 19.053961-19.064194 10.517541 0 19.056008 8.537444 19.056008 19.064194l0 38.107923c0 10.507308-8.538467 19.042705-19.056008 19.042705-10.524704 0-19.053961-8.53642-19.053961-19.042705L302.418192 121.425514zM893.057227 883.529735c0 21.052478-17.065677 38.107923-38.099736 38.107923L169.048649 921.637658c-21.052478 0-38.1069-17.055444-38.1069-38.107923L130.941749 330.990436l762.114454 0L893.056204 883.529735zM893.057227 292.901956 130.941749 292.901956l0-95.28004c0-21.034059 17.054421-38.08848 38.1069-38.08848l95.260597 0c0 31.559786 25.593911 57.152674 57.161884 57.152674 31.571043 0 57.162908-25.592888 57.162908-57.152674l76.207659 0c0 31.559786 25.591865 57.152674 57.162908 57.152674 31.559786 0 57.154721-25.592888 57.154721-57.152674l76.214822 0c0 31.559786 25.593911 57.152674 57.152674 57.152674 31.57002 0 57.159838-25.592888 57.159838-57.152674l95.271854 0c21.035082 0 38.099736 17.054421 38.099736 38.08848L893.058251 292.901956zM321.471131 578.683748c31.571043 0 57.162908-25.591865 57.162908-57.152674 0-31.559786-25.591865-57.152674-57.162908-57.152674-31.568996 0-57.161884 25.592888-57.161884 57.152674C264.309246 553.091884 289.903158 578.683748 321.471131 578.683748zM321.471131 502.467903c10.517541 0 19.056008 8.537444 19.056008 19.063171 0 10.526751-8.538467 19.045775-19.056008 19.045775-10.524704 0-19.053961-8.519024-19.053961-19.045775C302.418192 511.005346 310.946426 502.467903 321.471131 502.467903zM512.004605 578.683748c31.559786 0 57.154721-25.591865 57.154721-57.152674 0-31.559786-25.594935-57.152674-57.154721-57.152674-31.571043 0-57.162908 25.592888-57.162908 57.152674C454.841697 553.091884 480.433562 578.683748 512.004605 578.683748zM512.004605 502.467903c10.514471 0 19.043728 8.537444 19.043728 19.063171 0 10.526751-8.529257 19.045775-19.043728 19.045775-10.527774 0-19.064194-8.519024-19.064194-19.045775C492.94041 511.005346 501.476831 502.467903 512.004605 502.467903zM702.524776 578.683748c31.57002 0 57.159838-25.591865 57.159838-57.152674 0-31.559786-25.590841-57.152674-57.159838-57.152674-31.558763 0-57.152674 25.592888-57.152674 57.152674C645.373125 553.091884 670.967036 578.683748 702.524776 578.683748zM702.524776 502.467903c10.525728 0 19.053961 8.537444 19.053961 19.063171 0 10.526751-8.528234 19.045775-19.053961 19.045775-10.516518 0-19.043728-8.519024-19.043728-19.045775C683.481048 511.005346 692.008258 502.467903 702.524776 502.467903zM512.004605 788.270161c31.559786 0 57.154721-25.591865 57.154721-57.152674 0-31.580253-25.594935-57.173141-57.154721-57.173141-31.571043 0-57.162908 25.592888-57.162908 57.173141C454.841697 762.678296 480.433562 788.270161 512.004605 788.270161zM512.004605 712.053292c10.514471 0 19.043728 8.537444 19.043728 19.064194 0 10.525728-8.529257 19.043728-19.043728 19.043728-10.527774 0-19.064194-8.518001-19.064194-19.043728C492.94041 720.590735 501.476831 712.053292 512.004605 712.053292zM702.524776 788.270161c31.57002 0 57.159838-25.591865 57.159838-57.152674 0-31.580253-25.590841-57.173141-57.159838-57.173141-31.558763 0-57.152674 25.592888-57.152674 57.173141C645.373125 762.678296 670.967036 788.270161 702.524776 788.270161zM702.524776 712.053292c10.525728 0 19.053961 8.537444 19.053961 19.064194 0 10.525728-8.528234 19.043728-19.053961 19.043728-10.516518 0-19.043728-8.518001-19.043728-19.043728C683.481048 720.590735 692.008258 712.053292 702.524776 712.053292zM321.471131 788.270161c31.571043 0 57.162908-25.591865 57.162908-57.152674 0-31.580253-25.591865-57.173141-57.162908-57.173141-31.568996 0-57.161884 25.592888-57.161884 57.173141C264.309246 762.678296 289.903158 788.270161 321.471131 788.270161zM321.471131 712.053292c10.517541 0 19.056008 8.537444 19.056008 19.064194 0 10.525728-8.538467 19.043728-19.056008 19.043728-10.524704 0-19.053961-8.518001-19.053961-19.043728C302.418192 720.590735 310.946426 712.053292 321.471131 712.053292z" p-id="21223"></path></svg>