<?xml version="1.0" standalone="no"?><!DOCTYPE svg PUBLIC "-//W3C//DTD SVG 1.1//EN" "http://www.w3.org/Graphics/SVG/1.1/DTD/svg11.dtd"><svg t="1615123095640" class="icon" viewBox="0 0 1024 1024" version="1.1" xmlns="http://www.w3.org/2000/svg" p-id="51530" xmlns:xlink="http://www.w3.org/1999/xlink" width="200" height="200"><defs><style type="text/css"></style></defs><path d="M708.289 574.262c-8.604 59.622-32.199 106.36-70.785 140.224-38.591 33.864-87.419 50.796-146.492 50.796-68.806 0-123.634-22.958-164.485-68.879-40.856-45.916-70.477-106.463-70.477-184.276 0-77.808 30.416-141.102 72.854-187.244 42.437-46.137 99.414-69.208 170.936-69.208 56.356 0 102.639 14.03 138.853 42.084 36.209 28.059 57.938 66.742 65.183 116.059h-65.183c-6.339-31.999-21.674-56.714-46.001-74.14-24.326-17.425-55.618-26.138-93.865-26.138-50.022 0-89.855 17.81-119.502 53.426-29.648 35.621-53.667 84.886-53.667 145.16 0 64.004 22.942 111.451 50.441 144.987 27.499 33.535 67.39 50.303 119.672 50.303 38.703 0 70.838-11.559 96.411-34.686 25.573-23.122 42.548-55.944 50.924-98.469h65.183z" p-id="51531"></path></svg>