<?xml version="1.0" standalone="no"?><!DOCTYPE svg PUBLIC "-//W3C//DTD SVG 1.1//EN" "http://www.w3.org/Graphics/SVG/1.1/DTD/svg11.dtd"><svg t="1617314625062" class="icon" viewBox="0 0 1024 1024" version="1.1" xmlns="http://www.w3.org/2000/svg" p-id="50229" xmlns:xlink="http://www.w3.org/1999/xlink" width="200" height="200"><defs><style type="text/css"></style></defs><path d="M457.772 718.3v-324.188c0-18.848-15.337-34.168-34.168-34.168-18.863 0-34.199 15.321-34.199 34.168v324.188c0 18.848 15.337 34.168 34.199 34.168 18.833 0 34.168-15.32 34.168-34.168z" p-id="50230"></path><path d="M777.342 360.711c-18.863 0-34.199 15.321-34.199 34.168v441.293c0 13.649-11.073 24.752-24.722 24.752h-412.66c-13.649 0-24.722-11.104-24.722-24.752v-442.49c0-18.848-15.337-34.183-34.199-34.183-18.863 0-34.199 15.337-34.199 34.183v442.49c0 51.345 41.775 93.12 93.12 93.12h412.66c51.345 0 93.12-41.775 93.12-93.12v-441.293c-0.001-18.847-15.337-34.168-34.201-34.168z" p-id="50231"></path><path d="M634.595 718.3v-324.188c0-18.848-15.337-34.168-34.199-34.168-18.833 0-34.168 15.321-34.168 34.168v324.188c0 18.848 15.337 34.168 34.168 34.168 18.863 0 34.199-15.32 34.199-34.168z" p-id="50232"></path><path d="M895.123 242.070h-142.625v-54.244c0-51.345-41.499-93.12-92.476-93.12h-295.372c-51.345 0-93.12 41.775-93.12 93.12v54.244h-142.625c-18.863 0-34.199 15.321-34.199 34.168s15.337 34.183 34.199 34.183h766.216c18.833 0 34.168-15.337 34.168-34.183s-15.336-34.168-34.168-34.168zM684.101 242.070h-344.201v-54.244c0-13.649 11.104-24.768 24.752-24.768h295.372c13.496 0 24.078 10.873 24.078 24.768v54.244z" p-id="50233"></path></svg>