<?xml version="1.0" standalone="no"?><!DOCTYPE svg PUBLIC "-//W3C//DTD SVG 1.1//EN" "http://www.w3.org/Graphics/SVG/1.1/DTD/svg11.dtd"><svg t="1615123088515" class="icon" viewBox="0 0 1024 1024" version="1.1" xmlns="http://www.w3.org/2000/svg" p-id="51400" xmlns:xlink="http://www.w3.org/1999/xlink" width="200" height="200"><defs><style type="text/css"></style></defs><path d="M469.39119709044934 637.4592522922666c4.734311578232098 4.734311578232098 11.83577829831111 7.101466720079011 16.57008987654321 7.101466720079011s11.83577829831111-2.3671551418469137 16.57008987654321-7.101466720079011l99.42053925925923-99.42053925925923 99.42053925925923 99.42053925925923c4.734311578232098 4.734311578232098 11.83577829831111 7.101466720079011 16.57008987654321 7.101466720079011s11.83577829831111-2.3671551418469137 16.57008987654321-7.101466720079011c9.468623156464195-9.468623156464195 9.468623156464195-23.67155659662222 0-33.14017975308642l-99.42053925925923-99.42053925925923 99.42053925925923-99.42053925925923c9.468623156464195-9.468623156464195 9.468623156464195-23.67155659662222 0-33.14017975308642s-23.67155659662222-9.468623156464195-33.14017975308642 0l-99.42053925925923 99.42053925925923-99.42053925925923-99.42053925925923c-9.468623156464195-9.468623156464195-23.67155659662222-9.468623156464195-33.14017975308642 0s-9.468623156464195 23.67155659662222 0 33.14017975308642l99.42053925925923 99.42053925925923-99.42053925925923 99.42053925925923c-7.101466720079011 9.468623156464195-7.101466720079011 23.67155659662222 0 33.14017975308642z" p-id="51401"></path><path d="M341.56478965633585 814.9959293560098h591.7889239773234c26.038713033007408 0 47.343114487782714-21.304401454775306 47.343114487782714-47.343114487782714V239.77709525522965c0-26.038713033007408-21.304401454775306-47.343114487782714-47.343114487782714-47.343114487782714h-591.7889239773234c-11.83577829831111 0-23.67155659662222 0-310.09739607608884 298.2616177777778-9.468623156464195 9.468623156464195-9.468623156464195 23.67155659662222 0 33.14017975308642 288.79299462131354 291.1601510576987 298.2616177777778 291.1601510576987 310.09739607608884 291.1601510576987z m7.101466720079011-575.21883410078h584.6874572572444v527.8757196129975H348.6662563764148c-28.40586817485432-21.304401454775306-151.49796403073577-144.39649731065677-265.1214380246914-262.7542815883061 113.62347399395556-118.35778427764939 239.08272499168393-243.81703656991604 265.1214380246914-265.1214380246914z" p-id="51402"></path></svg>