<?xml version="1.0" standalone="no"?><!DOCTYPE svg PUBLIC "-//W3C//DTD SVG 1.1//EN" "http://www.w3.org/Graphics/SVG/1.1/DTD/svg11.dtd"><svg t="1612388377086" class="icon" viewBox="0 0 1024 1024" version="1.1" xmlns="http://www.w3.org/2000/svg" p-id="1646" xmlns:xlink="http://www.w3.org/1999/xlink" width="200" height="200"><defs><style type="text/css"></style></defs><path d="M700.7 112.50000001c-4.2 1.5-6.3 6.1-4.8 10.29999999L718.2 184 180.00000001 184c-37.6 0-68 30.4-68.00000001 68L112 772c0 37.6 30.4 68 68.00000001 68l538.19999999 0-22.3 61.30000001c-0.3 0.9-0.5 1.80000001-0.50000001 2.69999999 0 4.4 3.6 8 8 8L763 912c3.3 0 6.3-2.1 7.5-5.3L910.1 523c2.6-7.10000001 2.6-14.8 1e-8-21.9l-139.50000001-383.8c-1.2-3.2-4.2-5.3-7.5-5.3l-59.6 0c-1 0-1.9 0.2-2.8 0.50000001zM837.50000001 512l-93.10000001 256L184 767.99999999l0-511.99999998 560.4-1e-8 93.10000001 256z" p-id="1647"></path><path d="M627.84000001 298.66666667h-58.13333334c-3.2 0-6.18666667 1.81333333-7.57333333 4.69333333l-90.34666667 180.05333333H468.26666667l-90.34666666-180.05333333c-1.49333333-2.88-4.37333333-4.69333333-7.57333334-4.69333333h-59.41333333c-1.38666667 0-2.77333333 0.32-4.05333333 1.06666666-4.16 2.24-5.65333333 7.46666667-3.41333334 11.52l110.82666667 204.37333334h-60.8c-4.69333333 0-8.53333333 3.84-8.53333333 8.53333333v28.90666667c0 4.69333333 3.84 8.53333333 8.53333333 8.53333333h81.06666667v41.6h-81.06666667c-4.69333333 0-8.53333333 3.84-8.53333333 8.53333333v28.90666667c0 4.69333333 3.84 8.53333333 8.53333333 8.53333333h81.06666667V716.8c0 4.69333333 3.84 8.53333333 8.53333333 8.53333333h53.22666667c4.69333333 0 8.53333333-3.84 8.53333333-8.53333333v-67.73333333h81.38666667c4.69333333 0 8.53333333-3.84 8.53333333-8.53333334v-28.90666666c0-4.69333333-3.84-8.53333333-8.53333333-8.53333334h-81.38666667v-41.6h81.38666667c4.69333333 0 8.53333333-3.84 8.53333333-8.53333333v-28.90666667c0-4.69333333-3.84-8.53333333-8.53333333-8.53333333H524.80000001l110.61333333-204.37333333c0.64-1.28 1.06666667-2.66666667 1.06666667-4.05333334-0.10666667-4.58666667-3.94666667-8.42666667-8.64-8.42666666z" p-id="1648"></path></svg>