<?xml version="1.0" standalone="no"?><!DOCTYPE svg PUBLIC "-//W3C//DTD SVG 1.1//EN" "http://www.w3.org/Graphics/SVG/1.1/DTD/svg11.dtd"><svg t="1617312921517" class="icon" viewBox="0 0 1024 1024" version="1.1" xmlns="http://www.w3.org/2000/svg" p-id="628" xmlns:xlink="http://www.w3.org/1999/xlink" width="200" height="200"><defs><style type="text/css"></style></defs><path d="M624.64 940.20266667H391.168c-3.584 0-6.656-3.072-6.656-6.656 0-3.584 3.072-6.656 6.656-6.656H624.64c3.584 0 6.656 3.072 6.656 6.656 0 3.584-3.072 6.656-6.656 6.656z m-23.04-808.448c-7.68 0-14.336-5.12-15.872-12.8l-13.312-56.32c-2.048-8.704 3.584-17.92 12.288-19.968 8.704-2.048 17.92 3.584 19.968 12.288l13.312 56.32c2.048 8.704-3.584 17.92-12.288 19.968-1.536 0.512-2.56 0.512-4.096 0.512z m183.808 145.408c-1.024 0-2.048 0-3.072-0.512L725.504 265.38666667c-8.704-2.048-14.848-10.752-12.8-19.456 2.048-8.704 10.752-14.848 19.456-12.8l56.832 11.264c8.704 2.048 14.848 10.752 12.8 19.456-1.536 7.68-8.704 13.312-16.384 13.312z m-90.112-113.664c-4.608 0-9.728-2.048-12.8-6.144-5.632-7.168-4.608-17.408 2.048-23.04l48.64-39.936c7.168-5.632 17.408-4.608 23.04 2.048 5.632 7.168 4.608 17.408-2.048 23.04l-48.64 39.936c-2.56 3.072-6.656 4.096-10.24 4.096zM855.04 893.61066667H464.896l273.408-98.816c16.896-6.144 30.208-18.432 37.888-34.816 7.68-16.384 8.704-34.816 2.56-51.712l-17.92-48.64c-2.048-6.144-8.704-9.216-14.848-7.168-6.144 2.048-9.216 8.704-7.168 14.848l17.92 48.64c4.096 11.264 3.584 23.04-1.536 33.792-5.12 10.752-13.824 18.944-25.088 23.04l-307.2 111.616c-11.264 4.096-23.04 3.584-33.792-1.536-10.752-5.12-18.944-13.824-23.04-25.088L196.608 388.77866667c-8.192-23.04 3.584-48.128 26.624-56.832l307.2-111.616c11.264-4.096 23.04-3.584 33.792 1.536 10.752 5.12 18.944 13.824 23.04 25.088L656.384 439.46666667c2.048 6.144 8.704 9.216 14.848 7.168 6.144-2.048 9.216-8.704 7.168-14.848L608.768 239.78666667c-6.144-16.896-18.432-30.208-34.816-37.888-16.384-7.68-34.816-8.704-51.712-2.56L215.04 310.44266667c-34.816 12.8-53.248 51.2-40.448 86.528l169.984 468.48c8.192 23.04 27.648 38.4 49.664 43.008 1.536 1.024 3.072 1.536 4.608 1.536H855.04c4.608 0 8.192-3.584 8.192-8.192s-4.096-8.192-8.192-8.192zM774.656 398.50666667l-17.92-9.728c-7.168-4.096-17.408 1.024-23.04 11.264l-149.504 275.456c-0.512 1.024-1.024 2.56-1.024 3.584l1.024 30.72c-0.512 0-1.024 0-1.536 0.512l-46.592 17.408c-2.56 1.024-4.096 3.584-3.072 6.144 1.024 2.56 3.584 4.096 6.144 3.072l44.544-16.896v0.512c0 3.584 3.072 4.608 5.632 3.072l35.328-21.504c1.024-0.512 2.048-1.536 2.56-3.072L777.728 424.10666667c5.632-10.24 4.096-21.504-3.072-25.6zM440.32 763.56266667l-34.304 12.8c-2.56 1.024-4.096 3.584-3.072 6.144 1.024 2.56 3.584 4.096 6.144 3.072l34.304-12.8c2.56-1.024 4.096-3.584 3.072-6.144-0.512-2.56-3.584-4.096-6.144-3.072z m71.168-26.624l-46.592 17.408c-2.56 1.024-4.096 3.584-3.072 6.144 1.024 2.56 3.584 4.096 6.144 3.072l46.592-17.408c2.56-1.024 4.096-3.584 3.072-6.144-0.512-2.56-3.584-4.096-6.144-3.072z m-136.704-76.8c-2.048 0-4.096-1.536-4.608-3.072-1.024-2.56 0.512-5.632 3.072-6.144l29.184-10.752c2.56-1.024 5.632 0.512 6.144 3.072 1.024 2.56-0.512 5.12-3.072 6.144l-29.184 10.752h-1.536z m53.76-19.968c-2.048 0-4.096-1.024-4.608-3.072-1.024-2.56 0.512-5.632 3.072-6.144l46.592-17.408c2.56-1.024 5.632 0.512 6.144 3.072 1.024 2.56-0.512 5.632-3.072 6.144l-46.592 17.408h-1.536z m71.168-26.624c-2.048 0-4.096-1.536-4.608-3.072-1.024-2.56 0.512-5.632 3.072-6.144l46.592-17.408c2.56-1.024 5.632 0.512 6.144 3.072 1.024 2.56-0.512 5.632-3.072 6.144l-46.08 17.408h-2.048z m71.68-26.624c-2.56 0-5.12-2.048-5.12-5.12 0-2.048 1.536-4.096 3.072-4.608l46.592-17.408c2.56-1.024 5.632 0.512 6.144 3.072 1.024 2.56-0.512 5.632-3.072 6.144l-46.592 17.408c0 0.512-0.512 0.512-1.024 0.512z" p-id="629"></path><path d="M478.72 574.12266667c-3.072 1.024-6.144 1.536-9.216 0.512-3.584-0.512-6.144-2.048-8.704-3.584-2.56-2.048-4.096-4.608-5.12-7.68-2.048-5.12-1.536-9.728 0.512-14.336 2.56-4.608 5.632-7.168 10.752-9.216 5.12-2.048 9.728-2.048 13.824 0 4.608 2.048 7.68 5.632 9.216 10.752 1.024 3.072 1.536 6.144 1.024 9.216-0.512 3.072-2.048 5.632-4.096 8.192-3.072 3.584-5.632 5.12-8.192 6.144z m-24.064-61.952c-4.096 1.024-7.68 0.512-11.264-1.536-3.072-2.048-5.632-4.608-6.656-9.216-3.072-12.8-2.56-25.6 1.536-38.4 3.584-12.288 8.704-25.6 15.872-40.448 10.24-22.016 15.872-37.888 16.896-47.616 1.024-9.216 0-16.896-2.56-22.528-4.608-14.336-14.336-25.6-28.16-32.768-7.68-4.096-16.384-6.144-25.088-6.656-9.216-0.512-17.408 1.024-26.112 4.096-16.896 6.144-28.16 16.896-35.328 32.256-6.656 14.848-7.68 30.72-2.048 47.616 1.536 4.096 1.536 8.192-0.512 11.776-1.536 3.584-4.608 6.144-8.704 7.68-4.096 1.536-7.68 1.536-11.264-0.512-3.584-1.536-6.144-4.608-7.68-8.704-4.096-11.776-6.144-23.552-5.632-35.328 0.512-11.776 3.584-23.552 8.704-34.816 5.632-11.776 12.288-20.992 20.992-29.184 9.216-8.192 18.944-14.336 30.72-18.432 12.288-4.608 25.088-6.656 37.888-6.144 12.8 0.512 25.088 3.584 36.864 9.728 10.752 5.12 19.968 12.288 27.648 20.992 7.168 8.704 12.8 18.944 16.384 30.208 3.584 9.216 4.608 19.968 3.584 33.28-1.024 12.8-7.68 32.256-18.944 57.856-6.656 13.312-10.752 24.064-13.824 33.28-3.072 9.216-3.584 17.92-1.536 25.088 0.512 4.096 0.512 7.68-1.536 10.752-1.536 3.072-4.608 5.632-8.192 7.168l-2.048 0.512z" p-id="630"></path></svg>