<?xml version="1.0" standalone="no"?><!DOCTYPE svg PUBLIC "-//W3C//DTD SVG 1.1//EN" "http://www.w3.org/Graphics/SVG/1.1/DTD/svg11.dtd"><svg t="1615123687604" class="icon" viewBox="0 0 1024 1024" version="1.1" xmlns="http://www.w3.org/2000/svg" p-id="61151" xmlns:xlink="http://www.w3.org/1999/xlink" width="200" height="200"><defs><style type="text/css"></style></defs><path d="M512 64a448 448 0 1 1 0 896 448 448 0 0 1 0-896z m0 64a384 384 0 1 0 0 768 384 384 0 0 0 0-768z m-57.792 492.544l259.2-259.2a32 32 0 0 1 48.896 40.832l-3.648 4.48-281.792 281.728a32 32 0 0 1-40.832 3.712l-4.48-3.712L265.408 522.24a32 32 0 0 1 40.832-48.96l4.48 3.712 143.552 143.616 259.2-259.2-259.2 259.2z" p-id="61152"></path></svg>