<?xml version="1.0" standalone="no"?><!DOCTYPE svg PUBLIC "-//W3C//DTD SVG 1.1//EN" "http://www.w3.org/Graphics/SVG/1.1/DTD/svg11.dtd"><svg t="1610839985250" class="icon" viewBox="0 0 1024 1024" version="1.1" xmlns="http://www.w3.org/2000/svg" p-id="1218" xmlns:xlink="http://www.w3.org/1999/xlink" width="200" height="200"><defs><style type="text/css"></style></defs><path d="M798.99999999 449.00000001c-59.83 0-116.08-23.3-158.39-65.61C598.29999999 341.08000001 574.99999999 284.83000001 574.99999999 225.00000001s23.3-116.08 65.61-158.39C682.91999999 24.30000001 739.16999999 1.00000001 798.99999999 1.00000001s116.08 23.3 158.39 65.61C999.69999999 108.92000001 1022.99999999 165.17000001 1022.99999999 225.00000001s-23.3 116.08-65.61 158.39C915.07999999 425.70000001 858.82999999 449.00000001 798.99999999 449.00000001z m0-384c-88.22 0-160 71.78-160 160s71.78 160 160 160 160-71.78 160-160-71.78-160-160-160z" p-id="1219"></path><path d="M763.25546667 335.5192889v-41.33546667h-49.33404445c-10.67235555 0-15.99715555-4.86968889-15.99715555-14.66595556 0.87608889-7.99857778 6.21226667-12.87964445 15.99715555-14.66595556h49.33404445v-22.66453333h-49.33404445c-10.67235555 0-15.99715555-4.86968889-15.99715555-14.66595555 0.87608889-7.99857778 6.21226667-12.87964445 15.99715555-14.66595556h28.00071111l-42.66666666-59.99502222c-4.46008889-3.53848889-6.22364445-8.44231111-5.33617778-14.66595555 0.87608889-15.10968889 9.32977778-23.54062222 25.33831111-25.33831112 7.99857778 0.89884445 14.66595555 4.46008889 20.00213333 10.67235555l49.33404444 70.66737778 49.33404445-70.66737778c4.43733333-6.21226667 11.10471111-9.77351111 20.00213333-10.67235555 15.10968889 1.78631111 23.54062222 10.22862222 25.33831112 25.33831112 0 6.22364445-1.78631111 11.12746667-5.33617778 14.66595555l-42.66666667 59.99502222h28.00071111c8.87466667 1.78631111 14.21084445 6.66737778 15.99715556 14.66595556-0.89884445 9.79626667-6.22364445 14.66595555-15.99715556 14.66595555h-49.33404444v22.66453333h49.33404444c8.87466667 1.78631111 14.21084445 6.66737778 15.99715556 14.66595556-0.89884445 9.79626667-6.22364445 14.66595555-15.99715556 14.66595556h-49.33404444v41.33546667c-0.89884445 15.12106667-9.32977778 22.66453333-25.33831112 22.66453333-16.896 0-25.33831111-7.54346667-25.3383111-22.66453333zM61.44 998.9688889c-20.10453333 0-36.40888889-16.30435555-36.4088889-36.4088889V161.56444445c0-20.10453333 16.30435555-36.40888889 36.4088889-36.40888889s36.40888889 16.30435555 36.40888889 36.40888889v800.99555555c0 20.10453333-16.30435555 36.40888889-36.40888889 36.4088889z" p-id="1220"></path><path d="M25.0311111 962.56c0-20.10453333 16.30435555-36.40888889 36.4088889-36.40888889h800.99555555c20.10453333 0 36.40888889 16.30435555 36.40888889 36.40888889s-16.30435555 36.40888889-36.40888889 36.4088889H61.44c-20.10453333 0-36.40888889-16.30435555-36.4088889-36.4088889zM243.48444444 853.33333333h-72.81777777V671.2888889c0-20.02488889 16.384-36.40888889 36.40888888-36.4088889s36.40888889 16.384 36.40888889 36.4088889v182.04444443zM461.93777777 853.33333333h-72.81777777V307.2c0-20.02488889 16.384-36.40888889 36.40888889-36.40888889s36.40888889 16.384 36.40888888 36.40888889v546.13333333zM680.3911111 853.33333333h-72.81777777V525.65333333c0-20.02488889 16.384-36.40888889 36.40888889-36.40888888s36.40888889 16.384 36.40888888 36.40888888v327.68z" p-id="1221"></path></svg>